<svg width="268" height="377" viewBox="0 0 268 377" fill="none" xmlns="http://www.w3.org/2000/svg">
<path d="M99.1632 164.613C100.623 167.703 106.784 164.837 110.888 153.793C114.992 142.749 110.847 136.501 108.067 138.222C106.794 139.01 103.908 143.8 101.95 149.232C99.6317 155.666 98.3716 162.938 99.1632 164.613Z" fill="#49332D"/>
<path d="M94.6666 147.92C89.8575 161.699 98.212 166.578 97.9511 163.535C98.9004 150.066 100.786 146.192 105.755 138.77C107.454 136.698 99.4756 134.142 94.6666 147.92Z" fill="#49332D"/>
<path d="M92.0888 149.283C91.2895 148.257 83.6404 140.306 82.8605 145.403C82.5395 147.502 83.2383 151.188 84.8876 154.335C87.244 158.83 90.4891 162.633 92.0645 162.796C93.6791 162.964 91.593 161.984 92.1584 155.786C92.7237 149.588 92.888 150.309 92.0888 149.283Z" fill="#49332D"/>
<path d="M94.9878 143.358C95.4239 142.353 89.2263 140.969 86.6891 141.909C84.152 142.849 92.2826 146.801 93.1453 146.83C93.6023 146.845 93.7874 146.043 94.0968 145.238C94.3715 144.524 94.7827 143.83 94.9878 143.358Z" fill="#49332D"/>
<path d="M124.556 143.087C124.456 142.612 124.46 142.154 124.566 141.713C124.684 141.253 124.823 140.812 124.983 140.392C125.143 139.972 125.279 139.557 125.392 139.148C125.52 138.735 125.541 138.323 125.455 137.911C125.435 137.816 125.404 137.707 125.362 137.584C125.332 137.441 125.288 137.31 125.23 137.191C125.188 137.068 125.119 136.976 125.024 136.916C124.941 136.836 124.844 136.809 124.734 136.835C124.718 136.838 124.688 136.854 124.644 136.881C124.613 136.888 124.599 136.9 124.602 136.916C124.445 137.269 124.248 137.673 124.013 138.128C123.79 138.563 123.543 139.004 123.273 139.45C123.003 139.897 122.737 140.325 122.476 140.736C122.215 141.147 121.974 141.495 121.753 141.78C121.6 142 121.39 142.299 121.123 142.678C120.871 143.054 120.611 143.431 120.343 143.81C120.088 144.17 119.857 144.491 119.652 144.772C119.462 145.05 119.352 145.192 119.32 145.2L118.039 144.53C118.181 144.497 118.316 144.432 118.444 144.335C118.557 144.241 118.668 144.14 118.778 144.031C119.59 143.174 120.288 142.244 120.871 141.241C121.47 140.235 122.04 139.168 122.582 138.043C122.603 137.988 122.654 137.834 122.733 137.583C122.825 137.312 122.92 137.015 123.018 136.692C123.112 136.354 123.208 136.024 123.306 135.701C123.401 135.363 123.469 135.097 123.511 134.905C123.562 134.676 123.583 134.497 123.572 134.366C123.577 134.232 123.581 134.132 123.583 134.064C123.598 133.978 123.634 133.911 123.69 133.865C123.746 133.818 123.877 133.77 124.082 133.722C124.113 133.714 124.186 133.706 124.299 133.695C124.429 133.681 124.511 133.679 124.545 133.687C124.84 134.066 125.101 134.403 125.328 134.699C125.555 134.994 125.755 135.279 125.929 135.554C126.099 135.813 126.239 136.088 126.349 136.378C126.475 136.664 126.576 136.989 126.653 137.353C126.557 137.924 126.442 138.517 126.306 139.131C126.167 139.729 126.062 140.295 125.992 140.827C125.921 141.359 125.904 141.829 125.94 142.236C125.991 142.639 126.144 142.936 126.399 143.125C126.666 143.294 127.053 143.327 127.56 143.224C128.083 143.117 128.787 142.809 129.673 142.3C129.951 142.367 130.008 142.52 129.843 142.758C129.675 142.981 129.395 143.222 129.003 143.481C128.626 143.736 128.198 143.979 127.717 144.209C127.249 144.42 126.844 144.541 126.503 144.571C126.204 144.642 125.942 144.654 125.718 144.608C125.505 144.542 125.318 144.436 125.155 144.292C125.009 144.144 124.881 143.966 124.771 143.759C124.677 143.549 124.606 143.325 124.556 143.087ZM128.767 142.714C128.374 142.175 128.133 141.617 128.045 141.039C127.953 140.445 127.965 139.869 128.079 139.31C128.206 138.731 128.407 138.193 128.683 137.695C128.972 137.178 129.297 136.719 129.659 136.317C130.018 135.9 130.393 135.561 130.785 135.302C131.193 135.039 131.566 134.885 131.903 134.838C132.237 134.776 132.522 134.833 132.758 135.01C132.993 135.187 133.127 135.513 133.161 135.987C133.29 136.605 133.206 137.19 132.908 137.743C132.627 138.291 132.288 138.804 131.892 139.28C131.511 139.753 131.156 140.186 130.825 140.58C130.507 140.955 130.374 141.269 130.427 141.522C130.457 141.665 130.559 141.757 130.733 141.799C130.923 141.837 131.133 141.854 131.364 141.849C131.591 141.829 131.816 141.8 132.04 141.764C132.264 141.728 132.425 141.706 132.523 141.7C133.937 141.032 135.007 140.579 135.734 140.341C136.458 140.086 136.924 139.984 137.133 140.034C137.339 140.069 137.327 140.213 137.099 140.466C136.884 140.7 136.53 140.984 136.038 141.316C135.542 141.633 134.956 141.955 134.281 142.281C133.605 142.607 132.924 142.868 132.238 143.064C131.548 143.244 130.888 143.326 130.256 143.309C129.64 143.288 129.144 143.09 128.767 142.714ZM131.767 136.317C131.452 136.391 131.171 136.549 130.924 136.791C130.677 137.032 130.463 137.315 130.284 137.641C130.116 137.946 129.987 138.276 129.896 138.63C129.801 138.969 129.743 139.282 129.721 139.57C129.755 139.578 129.781 139.58 129.796 139.577L129.867 139.56C130.088 139.508 130.32 139.353 130.564 139.096C130.807 138.839 131.027 138.545 131.222 138.217C131.415 137.872 131.566 137.528 131.676 137.186C131.786 136.844 131.817 136.554 131.767 136.317ZM135.237 155.722C135.048 154.819 135.036 153.974 135.202 153.187C135.352 152.403 135.614 151.642 135.988 150.905C136.366 150.184 136.823 149.485 137.36 148.81C137.899 148.15 138.456 147.494 139.031 146.843C139.608 146.207 140.168 145.568 140.711 144.924C141.254 144.28 141.72 143.621 142.107 142.947C142.495 142.273 142.771 141.576 142.934 140.856C143.113 140.132 143.119 139.374 142.953 138.582C142.947 138.55 142.932 138.479 142.909 138.368C142.882 138.241 142.858 138.164 142.835 138.136C142.745 138.257 142.562 138.45 142.287 138.714C142.008 138.963 141.71 139.234 141.391 139.525C141.084 139.797 140.782 140.052 140.484 140.289C140.187 140.525 139.972 140.684 139.84 140.765C139.824 140.769 139.763 140.792 139.656 140.834C139.565 140.872 139.45 140.916 139.312 140.965C139.189 141.011 139.066 141.057 138.944 141.102C138.818 141.132 138.715 141.156 138.637 141.175C137.901 141.216 137.377 141.082 137.065 140.774C136.749 140.45 136.593 140.021 136.597 139.488C136.601 138.955 136.732 138.359 136.991 137.699C137.262 137.019 137.61 136.355 138.036 135.705C138.475 135.036 138.966 134.421 139.509 133.86C140.065 133.28 140.625 132.831 141.187 132.515C141.761 132.18 142.312 132.008 142.839 131.999C143.379 131.971 143.845 132.185 144.238 132.641C144.472 133.284 144.603 133.909 144.631 134.518C144.656 135.111 144.648 135.703 144.607 136.295C144.565 136.886 144.526 137.486 144.488 138.094C144.446 138.685 144.48 139.318 144.588 139.99L144.8 139.94C144.875 139.823 144.997 139.619 145.168 139.329C145.355 139.036 145.547 138.732 145.746 138.419C145.957 138.086 146.158 137.781 146.348 137.503C146.534 137.21 146.665 137.004 146.739 136.887C146.777 136.828 146.858 136.743 146.983 136.63C147.124 136.513 147.226 136.448 147.289 136.433L147.304 136.504L147.314 136.551C147.317 136.567 147.327 136.573 147.342 136.57C147.462 137.14 147.406 137.702 147.175 138.255C146.959 138.805 146.666 139.34 146.296 139.86C145.926 140.38 145.533 140.872 145.118 141.336C144.706 141.816 144.369 142.262 144.108 142.673C143.956 143.291 143.809 144.049 143.667 144.947C143.528 145.861 143.367 146.83 143.185 147.855C143.006 148.895 142.782 149.954 142.512 151.032C142.261 152.122 141.93 153.148 141.52 154.11C141.126 155.068 140.643 155.922 140.073 156.672C139.506 157.438 138.816 158.009 138.002 158.385C137.592 158.482 137.232 158.459 136.921 158.316C136.595 158.178 136.319 157.968 136.095 157.689C135.875 157.425 135.693 157.111 135.551 156.745C135.411 156.396 135.307 156.055 135.237 155.722ZM136.758 156.709C136.947 156.98 137.135 157.127 137.321 157.149C137.508 157.171 137.711 157.157 137.932 157.104C138.341 157.007 138.745 156.687 139.144 156.144C139.543 155.601 139.915 154.931 140.26 154.134C140.625 153.349 140.949 152.491 141.234 151.559C141.518 150.627 141.752 149.732 141.936 148.874C142.135 148.012 142.269 147.232 142.338 146.534C142.426 145.848 142.437 145.346 142.37 145.03C142.363 144.998 142.344 144.944 142.312 144.869C142.298 144.806 142.288 144.758 142.282 144.726C142.241 144.769 142.141 144.843 141.981 144.947C141.84 145.064 141.757 145.142 141.732 145.181C141.174 145.828 140.538 146.544 139.826 147.328C139.134 148.124 138.507 148.962 137.948 149.843C137.373 150.727 136.927 151.639 136.612 152.578C136.299 153.534 136.244 154.494 136.447 155.461C136.457 155.508 136.475 155.595 136.502 155.722C136.528 155.849 136.563 155.974 136.605 156.097C136.632 156.223 136.664 156.34 136.703 156.447C136.73 156.574 136.748 156.661 136.758 156.709ZM142.786 133.284C142.534 133.344 142.221 133.509 141.848 133.78C141.472 134.036 141.077 134.362 140.665 134.759C140.268 135.152 139.871 135.587 139.475 136.063C139.079 136.539 138.725 137.022 138.415 137.511C138.119 137.997 137.895 138.466 137.742 138.918C137.589 139.37 137.547 139.762 137.617 140.095C137.947 140.016 138.336 139.858 138.782 139.619C139.224 139.365 139.674 139.067 140.132 138.726C140.602 138.365 141.057 137.975 141.498 137.554C141.936 137.118 142.315 136.679 142.636 136.237C142.972 135.792 143.228 135.357 143.404 134.933C143.58 134.509 143.631 134.123 143.558 133.774C143.468 133.347 143.211 133.183 142.786 133.284ZM147.583 138.309C147.533 138.071 147.534 137.721 147.586 137.26C147.635 136.783 147.717 136.265 147.831 135.706C147.961 135.143 148.113 134.567 148.287 133.977C148.477 133.383 148.676 132.837 148.886 132.338C149.096 131.84 149.306 131.424 149.517 131.091C149.729 130.759 149.937 130.568 150.142 130.52C150.583 130.415 150.848 130.577 150.938 131.005C150.977 131.195 150.971 131.362 150.919 131.508C150.883 131.65 150.829 131.787 150.757 131.92C150.686 132.053 150.607 132.189 150.52 132.326C150.43 132.447 150.36 132.588 150.311 132.749C150.219 133.02 150.114 133.386 149.995 133.846C149.877 134.307 149.757 134.759 149.635 135.204C149.526 135.629 149.432 136.008 149.353 136.343C149.274 136.678 149.238 136.861 149.245 136.892L149.31 137.201C149.901 136.945 150.437 136.544 150.917 135.998C151.395 135.436 151.826 134.81 152.21 134.12C152.61 133.427 152.974 132.717 153.302 131.991C153.641 131.246 153.961 130.563 154.261 129.943C154.558 129.308 154.851 128.773 155.14 128.339C155.429 127.904 155.731 127.65 156.046 127.575C156.169 128.161 156.162 128.72 156.025 129.251C155.889 129.782 155.727 130.311 155.54 130.838C155.368 131.361 155.216 131.896 155.082 132.443C154.946 132.974 154.94 133.54 155.066 134.142C155.12 134.396 155.317 134.59 155.66 134.725C156.014 134.841 156.404 134.923 156.827 134.972C157.263 135.002 157.679 135.012 158.073 135.002C158.468 134.991 158.738 134.977 158.883 134.96L159.012 135.577C158.653 135.679 158.206 135.793 157.671 135.92C157.132 136.031 156.583 136.094 156.024 136.11C155.466 136.126 154.939 136.06 154.445 135.911C153.963 135.742 153.599 135.421 153.351 134.948C152.997 135.314 152.67 135.724 152.368 136.178C152.067 136.632 151.744 137.065 151.401 137.479C151.074 137.889 150.713 138.257 150.318 138.584C149.924 138.91 149.467 139.134 148.947 139.257C148.632 139.332 148.336 139.261 148.059 139.044C147.798 138.823 147.639 138.578 147.583 138.309ZM158.577 134.683C158.554 134.572 158.527 134.404 158.496 134.178C158.478 133.933 158.461 133.696 158.446 133.467C158.431 133.238 158.421 133.032 158.416 132.85C158.408 132.653 158.414 132.527 158.436 132.472L160.924 122.804C160.96 122.662 161.042 122.46 161.168 122.197C161.308 121.915 161.455 121.631 161.61 121.345C161.777 121.039 161.942 120.759 162.103 120.505C162.277 120.231 162.422 120.013 162.537 119.853C162.654 119.859 162.744 119.896 162.808 119.964C162.872 120.032 162.923 120.119 162.962 120.226C162.998 120.318 163.018 120.413 163.022 120.512C163.042 120.607 163.059 120.686 163.072 120.749C163.088 120.828 163.112 120.939 163.142 121.082C163.171 121.224 163.178 121.298 163.163 121.301C163.095 121.766 162.957 122.331 162.749 122.995C162.541 123.66 162.302 124.373 162.032 125.136C161.762 125.898 161.483 126.696 161.194 127.529C160.918 128.342 160.674 129.148 160.461 129.947C160.261 130.726 160.11 131.468 160.01 132.174C159.926 132.875 159.94 133.496 160.053 134.034C160.112 134.319 160.239 134.53 160.433 134.667C160.64 134.785 160.851 134.884 161.066 134.966C161.282 135.048 161.482 135.134 161.666 135.224C161.865 135.309 161.989 135.463 162.035 135.685C162.065 135.827 162.025 135.953 161.916 136.062C161.803 136.155 161.66 136.222 161.487 136.263C160.825 136.42 160.212 136.374 159.648 136.125C159.08 135.861 158.723 135.38 158.577 134.683ZM165.014 133.807C164.967 132.871 165.06 131.976 165.295 131.122C165.529 130.268 165.84 129.505 166.228 128.831C166.628 128.138 167.09 127.538 167.612 127.032C168.134 126.526 168.668 126.158 169.216 125.929C169.759 125.684 170.284 125.584 170.79 125.631C171.311 125.674 171.771 125.897 172.17 126.302C172.246 126.666 172.233 127.035 172.129 127.409C172.041 127.779 171.93 128.154 171.795 128.535C171.676 128.913 171.566 129.296 171.466 129.686C171.381 130.072 171.38 130.463 171.463 130.859C171.55 131.27 171.706 131.583 171.932 131.795C172.171 131.988 172.519 132.03 172.976 131.922C173.354 131.833 173.704 131.691 174.028 131.498C174.367 131.302 174.717 131.161 175.079 131.075C175.142 131.06 175.246 131.044 175.392 131.026C175.549 130.989 175.651 130.964 175.699 130.953C175.566 131.267 175.37 131.555 175.111 131.816C174.851 132.077 174.571 132.318 174.27 132.538C173.966 132.743 173.639 132.921 173.29 133.07C172.957 133.215 172.641 133.323 172.342 133.394C172.058 133.461 171.793 133.458 171.546 133.383C171.299 133.308 171.075 133.187 170.874 133.018C170.674 132.85 170.5 132.65 170.352 132.419C170.217 132.168 170.123 131.916 170.07 131.662C169.89 131.988 169.69 132.334 169.469 132.702C169.261 133.051 169.025 133.381 168.759 133.694C168.51 134.002 168.221 134.278 167.892 134.523C167.578 134.763 167.233 134.928 166.855 135.018C166.445 135.114 166.059 135.048 165.697 134.818C165.331 134.572 165.104 134.235 165.014 133.807ZM166.419 132.701C166.446 132.828 166.475 132.971 166.509 133.129C166.558 133.284 166.681 133.363 166.88 133.365C167.254 133.177 167.66 132.865 168.098 132.429C168.532 131.977 168.925 131.485 169.276 130.952C169.624 130.404 169.896 129.85 170.093 129.288C170.286 128.71 170.334 128.191 170.238 127.732C170.231 127.7 170.214 127.654 170.185 127.595C170.168 127.516 170.156 127.46 170.15 127.428C169.614 127.555 169.094 127.795 168.589 128.147C168.084 128.499 167.653 128.926 167.295 129.426C166.934 129.911 166.664 130.44 166.487 131.014C166.326 131.585 166.303 132.147 166.419 132.701ZM180.216 129.909C180.116 129.433 180.12 128.975 180.226 128.535C180.344 128.074 180.483 127.634 180.643 127.214C180.803 126.793 180.939 126.379 181.052 125.969C181.181 125.557 181.202 125.144 181.115 124.732C181.095 124.637 181.064 124.528 181.022 124.405C180.992 124.263 180.948 124.132 180.89 124.013C180.848 123.89 180.779 123.798 180.684 123.737C180.601 123.657 180.504 123.63 180.394 123.656C180.378 123.66 180.348 123.675 180.304 123.702C180.273 123.71 180.259 123.721 180.262 123.737C180.105 124.09 179.908 124.494 179.673 124.949C179.45 125.384 179.203 125.825 178.933 126.272C178.663 126.718 178.398 127.147 178.136 127.558C177.875 127.969 177.634 128.317 177.413 128.602C177.26 128.821 177.05 129.12 176.783 129.499C176.531 129.875 176.271 130.252 176.003 130.632C175.748 130.991 175.518 131.312 175.312 131.593C175.122 131.871 175.012 132.014 174.98 132.021L173.699 131.352C173.841 131.318 173.976 131.253 174.105 131.156C174.217 131.063 174.328 130.962 174.438 130.853C175.25 129.995 175.948 129.065 176.531 128.062C177.13 127.056 177.701 125.99 178.242 124.864C178.263 124.809 178.314 124.656 178.393 124.404C178.485 124.133 178.58 123.836 178.678 123.514C178.772 123.176 178.868 122.845 178.966 122.523C179.061 122.184 179.129 121.919 179.171 121.726C179.223 121.498 179.243 121.318 179.232 121.188C179.237 121.054 179.241 120.953 179.243 120.886C179.258 120.799 179.294 120.733 179.35 120.686C179.406 120.639 179.537 120.592 179.742 120.543C179.773 120.536 179.846 120.527 179.959 120.517C180.089 120.503 180.171 120.5 180.206 120.508C180.5 120.888 180.761 121.225 180.988 121.52C181.215 121.816 181.415 122.101 181.589 122.376C181.759 122.635 181.899 122.909 182.009 123.199C182.135 123.485 182.236 123.81 182.313 124.175C182.217 124.746 182.102 125.338 181.966 125.953C181.827 126.551 181.722 127.116 181.652 127.648C181.581 128.18 181.564 128.65 181.6 129.057C181.651 129.461 181.804 129.757 182.059 129.946C182.326 130.116 182.713 130.149 183.22 130.045C183.743 129.938 184.447 129.63 185.333 129.121C185.611 129.188 185.668 129.341 185.503 129.58C185.335 129.802 185.055 130.043 184.663 130.302C184.286 130.558 183.858 130.8 183.377 131.031C182.909 131.241 182.504 131.362 182.164 131.393C181.864 131.464 181.602 131.476 181.378 131.429C181.165 131.363 180.978 131.258 180.816 131.113C180.669 130.965 180.541 130.788 180.431 130.581C180.338 130.37 180.266 130.146 180.216 129.909Z" fill="#49332D"/>
<path d="M137.685 167.988C137.749 167.972 137.811 167.985 137.87 168.027L138.442 168.421C138.174 168.919 137.81 169.344 137.35 169.695C136.895 170.046 136.308 170.306 135.59 170.476C134.969 170.623 134.382 170.649 133.829 170.554C133.275 170.455 132.778 170.254 132.338 169.95C131.897 169.641 131.52 169.237 131.208 168.736C130.895 168.235 130.67 167.656 130.533 166.999C130.395 166.342 130.372 165.716 130.463 165.12C130.554 164.524 130.743 163.985 131.032 163.504C131.324 163.022 131.708 162.611 132.183 162.273C132.658 161.931 133.209 161.686 133.838 161.537C134.455 161.391 135.02 161.361 135.534 161.448C136.047 161.535 136.519 161.707 136.949 161.962L136.675 162.595C136.66 162.642 136.635 162.684 136.6 162.722C136.569 162.755 136.521 162.779 136.457 162.794C136.384 162.811 136.287 162.794 136.166 162.741C136.045 162.685 135.889 162.628 135.699 162.571C135.509 162.514 135.279 162.477 135.009 162.46C134.738 162.439 134.417 162.472 134.046 162.56C133.599 162.666 133.206 162.842 132.868 163.088C132.53 163.33 132.256 163.631 132.048 163.991C131.844 164.35 131.712 164.76 131.652 165.221C131.592 165.682 131.618 166.181 131.73 166.716C131.844 167.259 132.022 167.726 132.265 168.115C132.511 168.504 132.798 168.815 133.127 169.048C133.458 169.276 133.821 169.424 134.216 169.492C134.615 169.559 135.027 169.543 135.45 169.443C135.708 169.381 135.937 169.312 136.137 169.235C136.34 169.153 136.521 169.059 136.681 168.953C136.844 168.846 136.991 168.727 137.12 168.594C137.252 168.456 137.378 168.301 137.498 168.128C137.554 168.051 137.616 168.004 137.685 167.988ZM148.121 162.835C148.258 163.488 148.281 164.113 148.19 164.709C148.098 165.301 147.906 165.838 147.613 166.32C147.321 166.802 146.933 167.215 146.451 167.559C145.972 167.899 145.414 168.143 144.777 168.294C144.139 168.445 143.536 168.475 142.967 168.384C142.397 168.289 141.883 168.09 141.426 167.785C140.969 167.48 140.58 167.081 140.261 166.586C139.94 166.087 139.712 165.511 139.575 164.859C139.438 164.206 139.416 163.583 139.508 162.991C139.598 162.395 139.79 161.856 140.083 161.373C140.374 160.887 140.759 160.473 141.238 160.13C141.716 159.786 142.274 159.539 142.911 159.389C143.548 159.238 144.151 159.21 144.721 159.305C145.295 159.399 145.812 159.6 146.27 159.909C146.727 160.213 147.116 160.615 147.436 161.114C147.756 161.608 147.984 162.182 148.121 162.835ZM146.917 163.12C146.805 162.585 146.632 162.121 146.398 161.73C146.163 161.338 145.882 161.028 145.555 160.799C145.227 160.566 144.857 160.416 144.445 160.347C144.032 160.279 143.593 160.3 143.125 160.411C142.661 160.52 142.256 160.699 141.911 160.947C141.565 161.195 141.288 161.499 141.08 161.859C140.875 162.214 140.744 162.622 140.688 163.082C140.632 163.542 140.66 164.04 140.773 164.575C140.885 165.11 141.058 165.574 141.292 165.965C141.526 166.353 141.807 166.663 142.135 166.896C142.466 167.124 142.838 167.272 143.25 167.34C143.661 167.405 144.099 167.382 144.562 167.272C145.03 167.162 145.437 166.984 145.784 166.74C146.13 166.493 146.405 166.191 146.61 165.836C146.814 165.477 146.945 165.069 147.002 164.613C147.058 164.153 147.029 163.655 146.917 163.12ZM151.394 158.491L152.033 161.539L155.595 160.695L155.796 161.656L152.234 162.5L153.019 166.247L151.846 166.525L150.02 157.808L155.36 156.543L155.561 157.504L151.394 158.491ZM159.368 156.603L160.006 159.651L163.569 158.807L163.77 159.768L160.208 160.612L160.993 164.359L159.819 164.637L157.993 155.92L163.333 154.655L163.535 155.616L159.368 156.603ZM172.938 160.522L173.133 161.485L167.793 162.749L165.966 154.032L171.307 152.767L171.508 153.729L167.341 154.715L167.948 157.611L171.323 156.812L171.516 157.736L168.141 158.535L168.765 161.51L172.938 160.522ZM181.053 158.601L181.248 159.563L175.908 160.828L174.082 152.11L179.422 150.846L179.623 151.807L175.456 152.794L176.063 155.689L179.438 154.89L179.631 155.815L176.257 156.614L176.88 159.589L181.053 158.601Z" fill="#49332D"/>
<path d="M108.933 214.499L108.143 214.686C108.056 214.707 107.975 214.702 107.902 214.671C107.832 214.637 107.76 214.581 107.686 214.502L105.465 212.514C105.362 212.414 105.26 212.352 105.159 212.328C105.058 212.301 104.929 212.306 104.772 212.343L103.992 212.528L104.619 215.52L103.744 215.728L102.374 209.19L103.249 208.983L103.85 211.848L104.525 211.688C104.661 211.656 104.772 211.607 104.857 211.542C104.945 211.477 105.022 211.371 105.09 211.224L106.309 208.522C106.339 208.438 106.381 208.366 106.435 208.305C106.492 208.241 106.564 208.198 106.651 208.177L107.391 208.002L105.99 211.154C105.885 211.399 105.725 211.589 105.509 211.723C105.678 211.728 105.827 211.764 105.956 211.833C106.087 211.898 106.219 212 106.353 212.141L108.933 214.499ZM110.55 209.189C110.885 209.109 111.199 209.094 111.492 209.143C111.785 209.192 112.048 209.297 112.282 209.459C112.516 209.62 112.714 209.837 112.875 210.108C113.039 210.376 113.159 210.691 113.235 211.053C113.311 211.418 113.329 211.758 113.287 212.075C113.248 212.39 113.156 212.674 113.008 212.926C112.861 213.178 112.665 213.392 112.419 213.568C112.173 213.741 111.882 213.868 111.547 213.947C111.208 214.027 110.891 214.045 110.596 214C110.303 213.951 110.04 213.846 109.806 213.684C109.572 213.522 109.373 213.308 109.209 213.04C109.048 212.772 108.93 212.455 108.853 212.09C108.777 211.728 108.759 211.389 108.797 211.074C108.838 210.754 108.932 210.469 109.08 210.217C109.227 209.965 109.423 209.751 109.669 209.575C109.917 209.398 110.211 209.269 110.55 209.189ZM111.414 213.313C111.867 213.206 112.174 212.973 112.334 212.616C112.494 212.256 112.516 211.802 112.401 211.255C112.286 210.704 112.084 210.302 111.796 210.048C111.508 209.794 111.137 209.72 110.683 209.827C110.454 209.882 110.261 209.969 110.105 210.089C109.952 210.208 109.834 210.356 109.75 210.532C109.67 210.708 109.623 210.912 109.612 211.144C109.603 211.373 109.627 211.624 109.684 211.898C109.799 212.446 110 212.846 110.288 213.101C110.579 213.351 110.954 213.422 111.414 213.313ZM117.847 211.809C118.113 211.733 118.34 211.627 118.528 211.49C118.718 211.352 118.867 211.193 118.975 211.011C119.085 210.825 119.153 210.619 119.178 210.392C119.207 210.165 119.194 209.921 119.139 209.66C119.084 209.395 118.998 209.166 118.881 208.974C118.767 208.777 118.623 208.62 118.449 208.501C118.278 208.382 118.079 208.305 117.853 208.269C117.629 208.229 117.379 208.234 117.104 208.283L117.834 211.769L117.847 211.809ZM116.391 208.452C116.122 208.532 115.894 208.64 115.707 208.777C115.519 208.911 115.37 209.071 115.26 209.256C115.153 209.441 115.085 209.649 115.057 209.879C115.032 210.108 115.047 210.354 115.102 210.615C115.157 210.877 115.241 211.104 115.355 211.298C115.471 211.49 115.615 211.646 115.786 211.766C115.956 211.882 116.153 211.959 116.377 211.999C116.605 212.038 116.854 212.031 117.126 211.98L117.124 211.951L116.391 208.452ZM117.003 207.666C117.384 207.591 117.738 207.578 118.065 207.625C118.393 207.672 118.684 207.774 118.939 207.93C119.194 208.087 119.407 208.295 119.579 208.555C119.753 208.81 119.877 209.113 119.95 209.463C120.023 209.812 120.032 210.144 119.977 210.457C119.925 210.766 119.814 211.05 119.646 211.306C119.477 211.56 119.254 211.782 118.976 211.973C118.699 212.163 118.372 212.31 117.998 212.415L118.319 213.948L117.557 214.128L117.236 212.595C116.854 212.67 116.5 212.683 116.173 212.636C115.846 212.589 115.555 212.489 115.301 212.335C115.046 212.179 114.831 211.972 114.657 211.717C114.485 211.457 114.362 211.153 114.289 210.803C114.216 210.453 114.206 210.124 114.258 209.814C114.313 209.501 114.425 209.216 114.593 208.959C114.762 208.702 114.985 208.479 115.262 208.288C115.54 208.098 115.866 207.951 116.241 207.846L115.853 205.998L116.616 205.818L117.003 207.666ZM124.23 207.922C124.191 207.734 124.128 207.569 124.041 207.426C123.956 207.28 123.851 207.163 123.724 207.075C123.6 206.983 123.459 206.924 123.301 206.897C123.143 206.868 122.971 206.875 122.787 206.919C122.4 207.01 122.117 207.197 121.938 207.479C121.761 207.757 121.688 208.103 121.717 208.517L124.23 207.922ZM125.338 209.935C125.263 210.08 125.166 210.215 125.046 210.339C124.926 210.46 124.791 210.569 124.643 210.664C124.498 210.759 124.343 210.841 124.18 210.908C124.017 210.979 123.852 211.034 123.686 211.073C123.368 211.148 123.064 211.164 122.772 211.122C122.483 211.075 122.219 210.972 121.979 210.812C121.742 210.648 121.536 210.425 121.363 210.143C121.19 209.862 121.061 209.522 120.978 209.124C120.91 208.801 120.896 208.489 120.934 208.186C120.975 207.882 121.066 207.607 121.208 207.359C121.349 207.109 121.541 206.894 121.783 206.716C122.024 206.534 122.311 206.404 122.644 206.325C122.919 206.26 123.183 206.247 123.435 206.286C123.69 206.322 123.921 206.408 124.127 206.544C124.336 206.676 124.516 206.86 124.667 207.096C124.817 207.329 124.927 207.609 124.995 207.938C125.022 208.065 125.026 208.154 125.008 208.203C124.99 208.252 124.943 208.285 124.867 208.303L121.796 209.03C121.867 209.32 121.959 209.565 122.074 209.764C122.192 209.963 122.329 210.12 122.487 210.236C122.644 210.349 122.818 210.421 123.008 210.453C123.199 210.481 123.402 210.47 123.62 210.418C123.823 210.37 123.992 210.306 124.127 210.226C124.265 210.143 124.382 210.061 124.476 209.981C124.57 209.901 124.648 209.83 124.708 209.768C124.77 209.702 124.827 209.663 124.878 209.651C124.945 209.635 125.002 209.649 125.049 209.692L125.338 209.935ZM132.324 204.11L133.292 208.732L132.48 208.924L132.027 206.761L129.822 207.283L130.276 209.446L129.464 209.638L128.495 205.016L129.307 204.824L129.693 206.667L131.898 206.145L131.512 204.302L132.324 204.11ZM136.932 205.686C136.563 205.786 136.252 205.892 135.999 206.003C135.748 206.11 135.548 206.221 135.397 206.337C135.25 206.451 135.149 206.569 135.095 206.691C135.045 206.811 135.032 206.936 135.059 207.063C135.085 207.185 135.126 207.285 135.184 207.364C135.242 207.443 135.31 207.504 135.389 207.546C135.47 207.584 135.559 207.606 135.655 207.612C135.754 207.614 135.856 207.602 135.962 207.577C136.104 207.544 136.231 207.499 136.344 207.444C136.455 207.386 136.557 207.317 136.648 207.238C136.742 207.158 136.828 207.069 136.906 206.971C136.987 206.872 137.063 206.763 137.133 206.644L136.932 205.686ZM133.928 204.415C134.131 204.108 134.366 203.859 134.634 203.668C134.901 203.477 135.214 203.339 135.571 203.255C135.828 203.194 136.065 203.183 136.282 203.221C136.5 203.258 136.692 203.337 136.86 203.457C137.028 203.577 137.17 203.737 137.284 203.936C137.399 204.136 137.484 204.365 137.538 204.623L138.157 207.58L137.799 207.664C137.72 207.683 137.657 207.685 137.61 207.671C137.562 207.654 137.518 207.61 137.478 207.539L137.295 207.123C137.198 207.264 137.101 207.392 137.004 207.508C136.907 207.62 136.802 207.722 136.687 207.813C136.572 207.901 136.446 207.977 136.307 208.042C136.172 208.109 136.016 208.163 135.841 208.205C135.663 208.247 135.49 208.262 135.322 208.251C135.154 208.236 135.001 208.193 134.862 208.12C134.726 208.047 134.607 207.943 134.506 207.807C134.407 207.668 134.335 207.493 134.291 207.283C134.253 207.101 134.266 206.914 134.331 206.723C134.395 206.529 134.525 206.341 134.722 206.157C134.918 205.973 135.188 205.797 135.53 205.63C135.872 205.46 136.304 205.307 136.824 205.171L136.749 204.81C136.673 204.451 136.54 204.199 136.347 204.053C136.154 203.904 135.909 203.864 135.613 203.935C135.413 203.982 135.251 204.047 135.126 204.131C135.003 204.211 134.898 204.295 134.812 204.383C134.728 204.467 134.655 204.543 134.593 204.612C134.534 204.677 134.469 204.718 134.4 204.734C134.345 204.747 134.296 204.744 134.251 204.726C134.205 204.705 134.164 204.677 134.128 204.64L133.928 204.415ZM144.182 201.542C144.211 201.465 144.255 201.397 144.316 201.338C144.376 201.279 144.446 201.24 144.525 201.221L145.155 201.072L144.331 203.115C144.282 203.245 144.226 203.356 144.163 203.447C144.099 203.536 144.013 203.614 143.907 203.68C144.06 203.686 144.196 203.719 144.313 203.78C144.43 203.839 144.542 203.924 144.648 204.036L146.255 205.662L145.692 205.796C145.547 205.83 145.43 205.832 145.341 205.802C145.253 205.772 145.17 205.718 145.093 205.64L143.899 204.415C143.707 204.211 143.469 204.143 143.185 204.21L142.69 204.328L143.126 206.408L142.314 206.6L141.345 201.974L142.157 201.782L142.575 203.78L143.011 203.677C143.253 203.62 143.42 203.472 143.513 203.232L144.182 201.542ZM149.365 202.742C148.996 202.843 148.685 202.948 148.432 203.059C148.181 203.166 147.981 203.278 147.831 203.393C147.683 203.508 147.583 203.626 147.529 203.747C147.478 203.868 147.466 203.992 147.492 204.12C147.518 204.241 147.56 204.341 147.617 204.42C147.675 204.499 147.743 204.56 147.822 204.602C147.903 204.64 147.992 204.662 148.088 204.668C148.187 204.67 148.289 204.659 148.395 204.634C148.537 204.6 148.664 204.556 148.777 204.5C148.888 204.442 148.99 204.373 149.081 204.294C149.175 204.214 149.262 204.125 149.339 204.027C149.42 203.928 149.496 203.819 149.566 203.7L149.365 202.742ZM146.361 201.471C146.564 201.165 146.799 200.916 147.067 200.725C147.335 200.533 147.647 200.396 148.004 200.311C148.261 200.25 148.498 200.239 148.715 200.277C148.933 200.315 149.126 200.394 149.294 200.513C149.461 200.633 149.603 200.793 149.718 200.992C149.832 201.192 149.917 201.421 149.971 201.679L150.59 204.636L150.232 204.721C150.153 204.739 150.09 204.741 150.043 204.727C149.995 204.71 149.951 204.666 149.911 204.596L149.728 204.179C149.631 204.32 149.534 204.449 149.438 204.564C149.34 204.676 149.235 204.778 149.121 204.869C149.006 204.957 148.879 205.033 148.74 205.098C148.605 205.165 148.45 205.219 148.274 205.261C148.096 205.303 147.923 205.319 147.755 205.307C147.587 205.293 147.434 205.249 147.295 205.177C147.159 205.104 147.04 204.999 146.939 204.864C146.84 204.724 146.768 204.55 146.724 204.34C146.686 204.157 146.699 203.97 146.764 203.78C146.828 203.586 146.959 203.397 147.155 203.213C147.351 203.029 147.621 202.854 147.963 202.686C148.305 202.516 148.737 202.363 149.257 202.227L149.182 201.866C149.107 201.507 148.973 201.255 148.78 201.109C148.587 200.96 148.343 200.921 148.046 200.991C147.847 201.038 147.684 201.104 147.559 201.187C147.436 201.268 147.331 201.351 147.245 201.439C147.161 201.523 147.088 201.599 147.026 201.668C146.967 201.733 146.903 201.774 146.833 201.79C146.779 201.803 146.729 201.801 146.684 201.783C146.638 201.761 146.597 201.733 146.561 201.697L146.361 201.471ZM158.518 202.759L157.956 202.892C157.811 202.926 157.694 202.93 157.606 202.903C157.521 202.875 157.447 202.818 157.384 202.73L156.189 201.505C155.992 201.303 155.754 201.235 155.475 201.3L155.013 201.41L155.449 203.49L154.664 203.676L154.228 201.596L153.77 201.704C153.634 201.736 153.516 201.796 153.417 201.884C153.321 201.97 153.25 202.079 153.205 202.212L152.612 203.86C152.587 203.968 152.54 204.054 152.471 204.119C152.405 204.182 152.3 204.231 152.154 204.266L151.597 204.398L152.403 202.2C152.453 202.048 152.52 201.919 152.602 201.813C152.685 201.707 152.794 201.616 152.931 201.539C152.808 201.53 152.699 201.5 152.602 201.449C152.508 201.395 152.415 201.32 152.322 201.223L150.755 199.746L151.39 199.596C151.469 199.577 151.545 199.581 151.617 199.609C151.689 199.633 151.75 199.676 151.801 199.738L153.082 200.967C153.17 201.051 153.266 201.11 153.371 201.143C153.476 201.172 153.592 201.172 153.719 201.142L154.113 201.048L153.695 199.05L154.479 198.864L154.898 200.862L155.284 200.771C155.541 200.71 155.712 200.561 155.799 200.323L156.469 198.633C156.49 198.554 156.529 198.488 156.584 198.433C156.641 198.375 156.71 198.336 156.788 198.318L157.423 198.167L156.595 200.212C156.549 200.341 156.493 200.451 156.426 200.544C156.362 200.632 156.277 200.708 156.169 200.772C156.323 200.78 156.459 200.814 156.576 200.872C156.693 200.931 156.805 201.018 156.911 201.133L158.518 202.759ZM162.616 201.166L161.906 197.776L160.45 198.121C160.519 198.603 160.565 199.032 160.587 199.41C160.609 199.788 160.613 200.124 160.598 200.418C160.586 200.708 160.556 200.959 160.509 201.172C160.464 201.383 160.408 201.561 160.339 201.705L162.616 201.166ZM164.236 200.759L164.646 202.716C164.662 202.795 164.652 202.861 164.616 202.914C164.583 202.97 164.532 203.006 164.462 203.023L163.968 203.14L163.634 201.547L159.77 202.462L160.054 203.822C160.067 203.88 160.06 203.937 160.034 203.995C160.01 204.051 159.96 204.089 159.881 204.107L159.373 204.228L158.915 202.042L159.065 202.007C159.171 201.982 159.271 201.939 159.366 201.878C159.464 201.816 159.551 201.724 159.627 201.601C159.702 201.474 159.763 201.308 159.809 201.103C159.857 200.897 159.885 200.636 159.892 200.322C159.9 200.007 159.884 199.631 159.846 199.193C159.808 198.752 159.742 198.234 159.65 197.64L162.557 196.952L163.396 200.957L164.236 200.759ZM167.125 200.098C167.288 200.06 167.425 200.007 167.535 199.939C167.647 199.868 167.734 199.787 167.798 199.695C167.86 199.6 167.901 199.498 167.919 199.388C167.937 199.279 167.934 199.165 167.909 199.046C167.886 198.937 167.848 198.839 167.795 198.752C167.742 198.663 167.668 198.591 167.574 198.536C167.483 198.481 167.371 198.447 167.238 198.434C167.105 198.421 166.95 198.435 166.771 198.477L165.792 198.709L166.132 200.334L167.125 200.098ZM166.647 197.884C166.965 197.809 167.239 197.784 167.469 197.809C167.703 197.834 167.898 197.895 168.055 197.992C168.215 198.088 168.341 198.213 168.433 198.366C168.526 198.52 168.591 198.687 168.629 198.866C168.672 199.073 168.676 199.273 168.64 199.467C168.604 199.657 168.528 199.833 168.413 199.995C168.297 200.153 168.142 200.293 167.949 200.416C167.755 200.535 167.522 200.627 167.249 200.692L165.485 201.109L164.517 196.488L165.288 196.305L165.667 198.116L166.647 197.884ZM169.778 195.242L170.747 199.863L169.939 200.055L168.971 195.433L169.778 195.242ZM175.308 193.933L176.276 198.554L175.469 198.745L174.811 195.607C174.798 195.546 174.788 195.48 174.779 195.408C174.77 195.337 174.763 195.265 174.758 195.193C174.743 195.26 174.728 195.323 174.712 195.381C174.695 195.439 174.676 195.493 174.655 195.543L173.072 199.102C173.049 199.159 173.017 199.216 172.975 199.274C172.936 199.328 172.886 199.362 172.825 199.376L172.335 199.492L171.367 194.87L172.179 194.678L172.837 197.817C172.849 197.875 172.859 197.939 172.868 198.011C172.876 198.079 172.882 198.149 172.888 198.222C172.903 198.157 172.919 198.098 172.936 198.043C172.953 197.984 172.97 197.931 172.988 197.882L174.571 194.323C174.594 194.266 174.627 194.21 174.669 194.156C174.711 194.098 174.762 194.062 174.823 194.048L175.308 193.933ZM173.155 193.269C173.279 193.24 173.38 193.201 173.459 193.154C173.538 193.104 173.596 193.04 173.634 192.964C173.675 192.887 173.697 192.796 173.7 192.69C173.703 192.584 173.69 192.458 173.659 192.312L174.131 192.2C174.188 192.186 174.238 192.202 174.279 192.247C174.32 192.291 174.347 192.344 174.359 192.405C174.391 192.557 174.39 192.701 174.355 192.837C174.32 192.973 174.254 193.098 174.157 193.214C174.063 193.325 173.94 193.423 173.786 193.508C173.632 193.592 173.452 193.658 173.247 193.707C173.041 193.756 172.852 193.777 172.679 193.77C172.506 193.763 172.353 193.73 172.221 193.672C172.09 193.611 171.982 193.526 171.896 193.419C171.81 193.311 171.751 193.182 171.719 193.03C171.707 192.969 171.71 192.909 171.729 192.85C171.749 192.791 171.787 192.755 171.845 192.741L172.316 192.63C172.347 192.776 172.385 192.896 172.43 192.991C172.475 193.085 172.53 193.158 172.595 193.21C172.663 193.261 172.742 193.292 172.833 193.302C172.924 193.31 173.031 193.299 173.155 193.269ZM183.52 196.217L182.81 192.827L181.354 193.171C181.423 193.653 181.469 194.083 181.491 194.461C181.513 194.839 181.517 195.175 181.502 195.469C181.49 195.759 181.46 196.01 181.412 196.222C181.368 196.434 181.311 196.612 181.243 196.756L183.52 196.217ZM185.139 195.809L185.549 197.766C185.566 197.846 185.556 197.912 185.52 197.965C185.487 198.021 185.436 198.057 185.366 198.073L184.872 198.19L184.538 196.598L180.673 197.513L180.958 198.873C180.97 198.93 180.963 198.988 180.937 199.045C180.914 199.102 180.863 199.139 180.785 199.158L180.277 199.278L179.819 197.093L179.969 197.057C180.074 197.032 180.175 196.989 180.27 196.929C180.368 196.867 180.455 196.775 180.531 196.651C180.606 196.525 180.667 196.359 180.712 196.154C180.761 195.947 180.789 195.687 180.796 195.372C180.803 195.058 180.788 194.681 180.75 194.243C180.712 193.802 180.646 193.285 180.553 192.691L183.461 192.002L184.3 196.008L185.139 195.809ZM188.795 192.636C188.755 192.447 188.692 192.282 188.605 192.139C188.52 191.993 188.415 191.876 188.289 191.788C188.165 191.696 188.024 191.637 187.866 191.611C187.707 191.581 187.536 191.588 187.351 191.632C186.964 191.723 186.681 191.91 186.502 192.192C186.326 192.47 186.252 192.816 186.282 193.231L188.795 192.636ZM189.902 194.648C189.828 194.793 189.73 194.928 189.61 195.052C189.49 195.173 189.355 195.282 189.207 195.378C189.062 195.473 188.908 195.554 188.744 195.621C188.581 195.692 188.417 195.747 188.25 195.786C187.933 195.861 187.628 195.878 187.337 195.835C187.048 195.788 186.783 195.685 186.543 195.525C186.306 195.361 186.101 195.138 185.927 194.857C185.754 194.575 185.626 194.235 185.542 193.837C185.475 193.514 185.46 193.202 185.498 192.899C185.539 192.596 185.631 192.32 185.773 192.073C185.914 191.822 186.105 191.608 186.347 191.429C186.588 191.247 186.875 191.117 187.208 191.038C187.483 190.973 187.747 190.96 188 190.999C188.255 191.035 188.485 191.121 188.692 191.257C188.9 191.39 189.08 191.574 189.231 191.809C189.381 192.042 189.491 192.322 189.56 192.651C189.586 192.779 189.591 192.867 189.572 192.916C189.554 192.965 189.507 192.999 189.431 193.016L186.361 193.744C186.431 194.033 186.523 194.278 186.638 194.478C186.756 194.676 186.894 194.834 187.051 194.95C187.208 195.062 187.382 195.135 187.573 195.166C187.763 195.194 187.967 195.183 188.184 195.131C188.387 195.083 188.556 195.019 188.692 194.939C188.83 194.856 188.946 194.774 189.04 194.694C189.135 194.614 189.212 194.543 189.272 194.481C189.334 194.415 189.391 194.376 189.442 194.364C189.509 194.348 189.566 194.362 189.613 194.405L189.902 194.648ZM194.264 189.444L195.233 194.066L194.421 194.258L193.968 192.096L191.763 192.618L192.216 194.78L191.404 194.972L190.436 190.351L191.248 190.158L191.634 192.002L193.839 191.48L193.453 189.637L194.264 189.444ZM198.459 192.68C198.622 192.641 198.759 192.588 198.868 192.52C198.98 192.449 199.068 192.368 199.131 192.276C199.194 192.181 199.234 192.079 199.253 191.97C199.271 191.86 199.268 191.746 199.243 191.627C199.22 191.518 199.182 191.42 199.129 191.333C199.075 191.244 199.002 191.172 198.908 191.118C198.817 191.062 198.705 191.028 198.572 191.015C198.439 191.002 198.283 191.016 198.105 191.059L197.13 191.29L197.47 192.914L198.459 192.68ZM197.981 190.466C198.298 190.39 198.572 190.365 198.803 190.391C199.037 190.415 199.232 190.476 199.389 190.573C199.548 190.669 199.675 190.794 199.767 190.948C199.86 191.101 199.925 191.268 199.962 191.447C200.006 191.654 200.009 191.854 199.974 192.048C199.938 192.238 199.862 192.414 199.746 192.576C199.63 192.734 199.476 192.875 199.282 192.997C199.088 193.116 198.855 193.208 198.583 193.273L196.819 193.69L195.85 189.069L196.626 188.885L197.005 190.696L197.981 190.466Z" fill="#49332D"/>
<path d="M232.486 12.2555L233.258 12.1674L233.17 11.3929L232.396 11.4839L232.486 12.2555ZM8.4541 58.0093L8.23603 57.2636L7.50282 57.4781L7.70487 58.2148L8.4541 58.0093ZM102.91 375.644C103.336 375.957 103.895 376.176 104.521 376.335C105.156 376.497 105.91 376.609 106.765 376.68C108.475 376.822 110.656 376.805 113.223 376.652C118.36 376.346 125.129 375.493 132.951 374.227C148.6 371.695 168.532 367.503 188.191 362.7C207.849 357.897 227.256 352.478 241.852 347.489C249.147 344.996 255.264 342.602 259.616 340.437C261.789 339.357 263.552 338.319 264.808 337.338C265.436 336.847 265.958 336.354 266.342 335.859C266.724 335.368 267.002 334.833 267.073 334.263L265.532 334.07C265.507 334.266 265.397 334.543 265.115 334.906C264.835 335.266 264.419 335.67 263.851 336.113C262.715 337.001 261.058 337.985 258.924 339.046C254.663 341.165 248.622 343.533 241.35 346.018C226.813 350.987 207.456 356.394 187.822 361.191C168.189 365.987 148.3 370.17 132.703 372.693C124.902 373.956 118.192 374.8 113.13 375.101C110.598 375.251 108.5 375.265 106.894 375.131C106.091 375.065 105.428 374.963 104.903 374.829C104.37 374.694 104.029 374.538 103.831 374.392L102.91 375.644ZM267.073 334.263C267.181 333.409 267.125 331.399 266.952 328.485C266.777 325.534 266.475 321.572 266.065 316.75C265.245 307.104 263.99 293.998 262.44 278.62C259.342 247.862 255.066 208.004 250.743 168.53C246.42 129.057 242.049 89.9658 238.758 60.7437C237.113 46.1326 235.738 33.9886 234.774 25.4973C234.293 21.2517 233.914 17.9192 233.655 15.6482C233.526 14.5126 233.427 13.6425 233.36 13.0562C233.326 12.763 233.301 12.5408 233.284 12.3919C233.275 12.3175 233.269 12.2613 233.265 12.2238C233.263 12.205 233.261 12.1909 233.26 12.1815C233.259 12.1768 233.259 12.1733 233.259 12.1709C233.258 12.1686 233.258 12.1674 232.486 12.2555C231.715 12.3436 231.715 12.3448 231.715 12.3472C231.715 12.3495 231.716 12.353 231.716 12.3577C231.717 12.3672 231.719 12.3813 231.721 12.4C231.725 12.4375 231.732 12.4936 231.74 12.568C231.757 12.7169 231.782 12.9391 231.816 13.2322C231.883 13.8184 231.982 14.6885 232.111 15.8239C232.37 18.0948 232.749 21.4271 233.231 25.6725C234.194 34.1634 235.569 46.307 237.214 60.9175C240.505 90.1388 244.876 129.228 249.199 168.7C253.522 208.172 257.796 248.025 260.894 278.775C262.443 294.151 263.698 307.247 264.517 316.881C264.926 321.699 265.227 325.646 265.401 328.577C265.577 331.546 265.617 333.391 265.532 334.07L267.073 334.263ZM232.396 11.4839C138.257 22.557 89.9266 33.3729 8.23603 57.2636L8.67217 58.755C90.2876 34.8862 138.532 24.089 232.577 13.0271L232.396 11.4839ZM8.4541 58.0093C7.70487 58.2148 7.7052 58.216 7.70585 58.2183C7.70649 58.2207 7.70747 58.2242 7.70876 58.229C7.71134 58.2384 7.71522 58.2525 7.72037 58.2713C7.73066 58.3088 7.74607 58.3649 7.7665 58.4394C7.80737 58.5883 7.86837 58.8105 7.94888 59.1036C8.10989 59.6898 8.34897 60.5598 8.66122 61.6948C9.28573 63.9647 10.2029 67.2949 11.3738 71.5359C13.7157 80.0179 17.0722 92.1431 21.1313 106.716C29.2494 135.862 40.1778 174.801 51.4186 213.97C62.6591 253.138 74.2133 292.541 83.5827 322.614C88.267 337.649 92.4077 350.361 95.6915 359.547C97.3328 364.138 98.7644 367.861 99.946 370.558C100.536 371.905 101.07 373.01 101.543 373.844C101.994 374.641 102.449 375.304 102.91 375.644L103.831 374.392C103.667 374.272 103.351 373.885 102.895 373.079C102.46 372.31 101.95 371.259 101.369 369.934C100.209 367.287 98.7916 363.603 97.1546 359.024C93.8817 349.868 89.7486 337.181 85.0661 322.152C75.7021 292.096 64.1518 252.707 52.9121 213.542C41.6729 174.378 30.7456 135.443 22.6281 106.299C18.5694 91.7275 15.2131 79.6034 12.8716 71.1224C11.7008 66.8819 10.7837 63.5522 10.1594 61.2826C9.84716 60.1478 9.60814 59.2781 9.44718 58.6921C9.36669 58.399 9.30573 58.177 9.26488 58.0281C9.24446 57.9537 9.22907 57.8976 9.21879 57.8602C9.21364 57.8414 9.20978 57.8273 9.2072 57.8179C9.20591 57.8132 9.20494 57.8097 9.2043 57.8073C9.20365 57.805 9.20333 57.8038 8.4541 58.0093Z" fill="#49332D"/>
<path d="M7.80498 64.8208L7.80489 64.8209C7.41043 64.9557 7.01592 65.091 6.6214 65.2268C5.89706 65.4762 4.92466 65.333 3.92284 64.7383C2.93342 64.1509 2.00275 63.1681 1.41391 61.9206C0.272338 59.502 0.370431 55.9692 4.20465 52.3339C4.23028 52.3199 4.28902 52.2884 4.39724 52.2379C4.55356 52.165 4.76957 52.0718 5.04713 51.9586C5.60109 51.7326 6.37421 51.4371 7.3516 51.0791C9.30486 50.3637 12.0528 49.4064 15.4501 48.269C22.2438 45.9945 31.6214 43.0041 42.4071 39.7954C63.9836 33.3763 91.1696 26.0909 114.57 21.9099C130.085 19.1379 146.988 15.6975 163.168 12.4044C171.604 10.6873 179.844 9.01025 187.588 7.48889C198.893 5.26772 209.141 3.37819 217.42 2.17473C225.686 0.973119 231.879 0.474027 235.209 0.961777C236.881 1.52312 238.72 3.36823 239.205 5.89888C239.676 8.35465 238.883 11.5917 235.053 14.962C198.943 19.9253 177.512 23.1715 137.524 31.2736L137.516 31.2754L137.507 31.2774C132.844 32.3337 128.244 33.3705 123.7 34.3946C81.8654 43.8233 44.8097 52.1748 7.80498 64.8208Z" fill="white" stroke="#49332D" stroke-width="1.55379"/>
</svg>
